<?xml version="1.0" encoding="utf-8"?>
<!-- Generator: Adobe Illustrator 23.0.1, SVG Export Plug-In . SVG Version: 6.00 Build 0)  -->
<svg version="1.1" id="Layer_1" xmlns="http://www.w3.org/2000/svg" xmlns:xlink="http://www.w3.org/1999/xlink" x="0px" y="0px"
	 viewBox="0 0 512 512" style="enable-background:new 0 0 512 512;" xml:space="preserve">
<style type="text/css">
	.st0{fill:#FF6B3E;}
</style>
<path class="st0" d="M512,32c0-21.7-21.1-37-41.6-30.5L150.4,96c-13.3,4.2-22.4,16.5-22.4,30.5v261.4c-10.1-2.4-20.7-3.9-32-3.9
	c-53,0-96,28.6-96,64s43,64,96,64s96-28.6,96-64V214.3l256-75v184.6c-10-2.4-20.7-3.9-32-3.9c-53,0-96,28.6-96,64s43,64,96,64
	s96-28.6,96-64L512,32L512,32z"/>
</svg>
